<svg width="510" height="137" viewBox="0 0 510 137" fill="none" xmlns="http://www.w3.org/2000/svg">
<path d="M387.198 124.654L381.93 124.714C379.314 124.739 377.002 123.006 376.291 120.474C374.563 114.305 371.345 102.81 369.178 95.0521C368.466 92.5031 368.551 89.8862 369.305 87.4816C324.551 75.2295 301.128 24.2666 295.015 9.00669C267.663 2.71068 238.008 -2.11541 206.541 0.94338C113.392 9.9753 96.9726 129.999 15.019 95.358C13.6133 94.7632 9.44702 91.8659 6.77959 89.9541C5.34849 88.9345 3.44318 88.8921 1.96974 89.8522C-0.13033 91.2116 -0.64688 94.092 0.885834 96.0802C4.80653 101.17 14.9597 110.083 40.2791 116.668C86.3706 128.665 134.283 67.9903 149.864 71.3975C166.156 74.9576 170.111 103.94 174.277 123.125C176.03 131.222 183.169 136.992 191.425 136.992H212.705C216.152 136.992 218.938 134.162 218.887 130.695C218.836 127.305 216.084 124.578 212.705 124.578H207.811C204.517 124.578 202.721 122.063 202.239 118.452C202.239 118.452 200.833 91.7299 208.852 85.9437C219.353 78.3647 253.555 97.1423 286.123 93.2083C289.121 92.843 291.958 94.6613 292.906 97.5331L301.442 123.295C304.152 131.477 311.781 136.992 320.368 136.992H339.929C343.418 136.992 346.212 134.103 346.111 130.611C346.017 127.254 343.274 124.586 339.929 124.586H334.035C330.504 124.586 327.43 122.131 326.693 118.664C324.881 110.159 322.51 93.2933 333.663 93.2933C344.815 93.2933 348.71 113.286 353.325 126.167C355.654 132.667 361.793 137 368.678 137H387.282C390.678 137 393.43 134.239 393.43 130.831C393.43 127.399 390.636 124.62 387.214 124.663L387.198 124.654Z" fill="white"/>
<path d="M509.036 90.7359C493.615 69.2734 434.703 27.1215 407.478 26C405.776 25.932 404.244 24.9379 403.363 23.468C400.619 18.8968 394.141 10.0178 386.402 12.3289C378.408 14.725 380.626 20.5791 382.904 24.1052C383.692 25.3203 382.803 26.9261 381.363 26.8666C366.298 26.2804 349.76 22.6013 331.927 18.1491C335.627 25.6941 354.198 61.2016 383.133 75.4334C423.805 57.0042 487.341 90.0731 502.16 98.3743C504.09 99.4534 506.47 99.207 508.146 97.7711C510.204 96.0038 510.619 92.9365 509.036 90.7359ZM420.079 54.3023C415.887 54.3023 412.492 50.8951 412.492 46.6893C412.492 42.4835 415.887 39.0763 420.079 39.0763C424.271 39.0763 427.666 42.4835 427.666 46.6893C427.666 50.8951 424.271 54.3023 420.079 54.3023Z" fill="white"/>
</svg>
